<svg width="24" height="24" viewBox="0 0 24 24" fill="none" xmlns="http://www.w3.org/2000/svg">
<path d="M22.1131 17.1417L21.6748 16.9011L21.5749 17.0831L21.6333 17.2823L22.1131 17.1417ZM16.3968 6.43648L15.9389 6.63731L16.054 6.89963L16.3384 6.93307L16.3968 6.43648ZM2.88697 12.7565L3.36678 12.8972L3.42519 12.6979L3.32526 12.5159L2.88697 12.7565ZM2.30716 14.7344L2.78694 14.8752L2.78697 14.8751L2.30716 14.7344ZM3.92957 16.3157L4.06366 16.7974L4.06367 16.7974L3.92957 16.3157ZM5.95948 15.7506L6.19071 15.3073L6.01562 15.2159L5.82537 15.2689L5.95948 15.7506ZM8.60228 16.5622L9.06016 16.3613L8.94498 16.0987L8.6602 16.0655L8.60228 16.5622ZM19.0407 20.1357L19.1748 19.654L18.9847 19.601L18.8096 19.6923L19.0407 20.1357ZM21.0705 20.7008L20.9364 21.1825L20.9364 21.1825L21.0705 20.7008ZM22.693 19.1197L22.2132 19.2603L22.2132 19.2603L22.693 19.1197ZM20.5847 17.2494L20.1048 17.39L20.1049 17.3901L20.5847 17.2494ZM21.1581 19.205L21.0239 19.6867L21.8911 19.9281L21.6379 19.0643L21.1581 19.205ZM19.1512 18.6463L19.2853 18.1646L19.2852 18.1646L19.1512 18.6463ZM18.5619 18.7209L18.8119 19.1539L18.8125 19.1535L18.5619 18.7209ZM10.28 16.5753L10.2299 16.0778L9.45716 16.1557L9.84794 16.8269L10.28 16.5753ZM16.8777 8.00059L16.9899 7.51334L16.2454 7.34195L16.3863 8.09284L16.8777 8.00059ZM22.5514 17.3823C23.8009 15.1061 23.8169 12.3741 22.5941 10.0841L21.712 10.5551C22.7756 12.5471 22.7618 14.9209 21.6748 16.9011L22.5514 17.3823ZM22.5941 10.0841C21.3719 7.79518 19.0728 6.24753 16.4552 5.9399L16.3384 6.93307C18.6386 7.20339 20.6477 8.56194 21.712 10.5551L22.5941 10.0841ZM16.8547 6.23566C15.6956 3.59285 13.146 1.79077 10.2227 1.532L10.1345 2.52811C12.7041 2.75556 14.9304 4.3379 15.9389 6.63731L16.8547 6.23566ZM10.2227 1.532C7.29972 1.27327 4.46107 2.59785 2.83395 4.99144L3.66096 5.55363C5.07977 3.46648 7.56471 2.30063 10.1345 2.52811L10.2227 1.532ZM2.83395 4.99144C1.20562 7.38681 1.05707 10.4624 2.44868 12.9972L3.32526 12.5159C2.11504 10.3116 2.24337 7.639 3.66096 5.55363L2.83395 4.99144ZM2.40716 12.6159L1.82736 14.5938L2.78697 14.8751L3.36678 12.8972L2.40716 12.6159ZM1.82738 14.5937C1.64352 15.2204 1.8242 15.8924 2.29194 16.3483L2.98992 15.6322C2.78362 15.4311 2.70877 15.1416 2.78694 14.8752L1.82738 14.5937ZM2.29194 16.3483C2.7582 16.8027 3.43609 16.9721 4.06366 16.7974L3.79548 15.834C3.50638 15.9145 3.1977 15.8347 2.98992 15.6322L2.29194 16.3483ZM4.06367 16.7974L6.09358 16.2323L5.82537 15.2689L3.79547 15.834L4.06367 16.7974ZM5.72824 16.1939C6.604 16.6507 7.55906 16.9439 8.54436 17.0588L8.6602 16.0655C7.79532 15.9647 6.9578 15.7074 6.19071 15.3073L5.72824 16.1939ZM8.1444 16.763C9.02871 18.7789 10.7386 20.3359 12.8528 21.0597L13.1767 20.1136C11.3215 19.4785 9.82962 18.1153 9.06016 16.3613L8.1444 16.763ZM12.8528 21.0597C14.9667 21.7834 17.295 21.6094 19.2718 20.5791L18.8096 19.6923C17.0765 20.5956 15.0323 20.7489 13.1767 20.1136L12.8528 21.0597ZM18.9066 20.6173L20.9364 21.1825L21.2046 20.2192L19.1748 19.654L18.9066 20.6173ZM20.9364 21.1825C21.564 21.3572 22.2418 21.1879 22.7081 20.7335L22.0102 20.0173C21.8024 20.2198 21.4937 20.2996 21.2046 20.2192L20.9364 21.1825ZM22.7081 20.7335C23.1758 20.2777 23.3566 19.6057 23.1728 18.979L22.2132 19.2603C22.2913 19.5268 22.2165 19.8163 22.0102 20.0173L22.7081 20.7335ZM23.1728 18.979L22.5929 17.001L21.6333 17.2823L22.2132 19.2603L23.1728 18.979ZM20.2344 16.4146C20.0558 16.7072 20.0083 17.0605 20.1048 17.39L21.0645 17.1088C21.0476 17.0511 21.0554 16.9889 21.088 16.9355L20.2344 16.4146ZM20.1049 17.3901L20.6782 19.3457L21.6379 19.0643L21.0645 17.1087L20.1049 17.3901ZM21.2922 18.7233L19.2853 18.1646L19.0171 19.128L21.0239 19.6867L21.2922 18.7233ZM19.2852 18.1646C18.9577 18.0735 18.6058 18.1176 18.3112 18.2882L18.8125 19.1535C18.8731 19.1185 18.9475 19.1086 19.0172 19.128L19.2852 18.1646ZM18.3118 18.2879C17.0395 19.0227 15.5156 19.2287 14.0842 18.8579L13.8335 19.8259C15.5174 20.2622 17.3111 20.0206 18.8119 19.1539L18.3118 18.2879ZM14.0842 18.8579C12.6531 18.4871 11.4391 17.5722 10.7121 16.3237L9.84794 16.8269C10.7118 18.3105 12.1492 19.3896 13.8335 19.8259L14.0842 18.8579ZM10.3302 17.0727C12.5415 16.8497 14.5606 15.7372 15.8986 13.9982L15.1061 13.3884C13.939 14.9052 12.1723 15.8819 10.2299 16.0778L10.3302 17.0727ZM15.8986 13.9982C17.2371 12.2587 17.7714 10.0511 17.3691 7.90835L16.3863 8.09284C16.7355 9.95301 16.2727 11.8722 15.1061 13.3884L15.8986 13.9982ZM16.7656 8.48785C18.4734 8.88097 19.8814 10.041 20.5635 11.6048L21.4801 11.2051C20.6682 9.34376 18.9989 7.97579 16.9899 7.51334L16.7656 8.48785ZM20.5635 11.6048C21.2451 13.1677 21.1234 14.953 20.234 16.4152L21.0884 16.9349C22.1463 15.1955 22.2923 13.0673 21.4801 11.2051L20.5635 11.6048Z" fill="#7152F3"/>
</svg>
