<svg width="25" height="24" viewBox="0 0 25 24" fill="none" xmlns="http://www.w3.org/2000/svg">
<mask id="mask0_9_77" style="mask-type:alpha" maskUnits="userSpaceOnUse" x="0" y="0" width="25" height="24">
<rect x="0.5" width="24" height="24" fill="#64748B"/>
</mask>
<g mask="url(#mask0_9_77)">
<path d="M12.5 22C11.1167 22 9.81667 21.7375 8.6 21.2125C7.38333 20.6875 6.325 19.975 5.425 19.075C4.525 18.175 3.8125 17.1167 3.2875 15.9C2.7625 14.6833 2.5 13.3833 2.5 12C2.5 10.6167 2.7625 9.31667 3.2875 8.1C3.8125 6.88333 4.525 5.825 5.425 4.925C6.325 4.025 7.38333 3.3125 8.6 2.7875C9.81667 2.2625 11.1167 2 12.5 2C13.8833 2 15.1833 2.2625 16.4 2.7875C17.6167 3.3125 18.675 4.025 19.575 4.925C20.475 5.825 21.1875 6.88333 21.7125 8.1C22.2375 9.31667 22.5 10.6167 22.5 12V13.45C22.5 14.4333 22.1625 15.2708 21.4875 15.9625C20.8125 16.6542 19.9833 17 19 17C18.4167 17 17.8667 16.875 17.35 16.625C16.8333 16.375 16.4 16.0167 16.05 15.55C15.5667 16.0333 15.0208 16.3958 14.4125 16.6375C13.8042 16.8792 13.1667 17 12.5 17C11.1167 17 9.9375 16.5125 8.9625 15.5375C7.9875 14.5625 7.5 13.3833 7.5 12C7.5 10.6167 7.9875 9.4375 8.9625 8.4625C9.9375 7.4875 11.1167 7 12.5 7C13.8833 7 15.0625 7.4875 16.0375 8.4625C17.0125 9.4375 17.5 10.6167 17.5 12V13.45C17.5 13.8833 17.6417 14.25 17.925 14.55C18.2083 14.85 18.5667 15 19 15C19.4333 15 19.7917 14.85 20.075 14.55C20.3583 14.25 20.5 13.8833 20.5 13.45V12C20.5 9.76667 19.725 7.875 18.175 6.325C16.625 4.775 14.7333 4 12.5 4C10.2667 4 8.375 4.775 6.825 6.325C5.275 7.875 4.5 9.76667 4.5 12C4.5 14.2333 5.275 16.125 6.825 17.675C8.375 19.225 10.2667 20 12.5 20H17.5V22H12.5ZM12.5 15C13.3333 15 14.0417 14.7083 14.625 14.125C15.2083 13.5417 15.5 12.8333 15.5 12C15.5 11.1667 15.2083 10.4583 14.625 9.875C14.0417 9.29167 13.3333 9 12.5 9C11.6667 9 10.9583 9.29167 10.375 9.875C9.79167 10.4583 9.5 11.1667 9.5 12C9.5 12.8333 9.79167 13.5417 10.375 14.125C10.9583 14.7083 11.6667 15 12.5 15Z" fill="#64748B"/>
</g>
</svg>
