<svg width="21" height="20" viewBox="0 0 21 20" fill="none" xmlns="http://www.w3.org/2000/svg">
<path d="M19.0009 10.1944C19.0009 9.47495 18.9413 8.94995 18.8124 8.40552H10.4294V11.6527H15.35C15.2509 12.4597 14.7152 13.675 13.5247 14.4916L13.508 14.6003L16.1585 16.6126L16.3421 16.6305C18.0286 15.1041 19.0009 12.8583 19.0009 10.1944Z" fill="#4285F4"/>
<path d="M10.4288 18.75C12.8395 18.75 14.8633 17.9722 16.3415 16.6305L13.524 14.4916C12.7701 15.0068 11.7581 15.3666 10.4288 15.3666C8.06773 15.3666 6.06379 13.8402 5.34944 11.7305L5.24473 11.7392L2.48868 13.8295L2.45264 13.9277C3.92087 16.786 6.93674 18.75 10.4288 18.75Z" fill="#34A853"/>
<path d="M5.35014 11.7305C5.16165 11.186 5.05257 10.6027 5.05257 9.99992C5.05257 9.3971 5.16165 8.81379 5.34022 8.26935L5.33523 8.1534L2.54464 6.02954L2.45333 6.0721C1.8482 7.25823 1.50098 8.5902 1.50098 9.99992C1.50098 11.4096 1.8482 12.7415 2.45333 13.9277L5.35014 11.7305Z" fill="#FBBC05"/>
<path d="M10.4289 4.63331C12.1054 4.63331 13.2364 5.34303 13.8812 5.93613L16.4011 3.525C14.8535 2.11528 12.8395 1.25 10.4289 1.25C6.93676 1.25 3.92088 3.21387 2.45264 6.07218L5.33953 8.26944C6.06381 6.15972 8.06776 4.63331 10.4289 4.63331Z" fill="#EB4335"/>
</svg>
