<svg width="31" height="30" viewBox="0 0 31 30" fill="none" xmlns="http://www.w3.org/2000/svg">
<g clip-path="url(#clip0_13_629)">
<path d="M30.0352 15C30.0352 6.71578 23.3194 0 15.0352 0C6.75094 0 0.0351562 6.71578 0.0351562 15C0.0351562 22.4869 5.52047 28.6925 12.6914 29.8178V19.3359H8.88281V15H12.6914V11.6953C12.6914 7.93594 14.9309 5.85938 18.3572 5.85938C19.9983 5.85938 21.7148 6.15234 21.7148 6.15234V9.84375H19.8234C17.96 9.84375 17.3789 11 17.3789 12.1863V15H21.5391L20.874 19.3359H17.3789V29.8178C24.5498 28.6925 30.0352 22.487 30.0352 15Z" fill="#1877F2"/>
<path d="M20.874 19.3359L21.5391 15H17.3789V12.1863C17.3789 10.9999 17.96 9.84375 19.8234 9.84375H21.7148V6.15234C21.7148 6.15234 19.9983 5.85938 18.3571 5.85938C14.9309 5.85938 12.6914 7.93594 12.6914 11.6953V15H8.88281V19.3359H12.6914V29.8178C13.4667 29.9393 14.2504 30.0002 15.0352 30C15.82 30.0002 16.6036 29.9393 17.3789 29.8178V19.3359H20.874Z" fill="white"/>
</g>
<defs>
<clipPath id="clip0_13_629">
<rect width="30" height="30" fill="white" transform="translate(0.0351562)"/>
</clipPath>
</defs>
</svg>
