<svg width="37" height="38" viewBox="0 0 37 38" fill="none" xmlns="http://www.w3.org/2000/svg">
<rect x="0.242676" y="0.796387" width="36.4078" height="36.4078" rx="18.2039" fill="#8D75F5"/>
<path d="M27.3192 20.6305C27.3192 21.9186 27.0614 23.0269 26.5734 23.8361C25.947 24.8755 24.9733 25.4255 23.7579 25.4255C21.4381 25.4255 19.8785 22.5152 18.2279 19.4343C17.0286 17.1963 15.5402 14.4114 14.3164 14.4114C13.7267 14.4114 13.0039 15.1281 12.4302 16.2815C11.7741 17.6383 11.4257 19.1234 11.4099 20.6305C11.4099 21.5713 11.5812 22.3729 11.8918 22.8884C12.1801 23.3672 12.5756 23.5898 13.1354 23.5898C14.1871 23.5898 15.4782 21.3717 15.9027 20.6458C16.0254 20.4355 16.2265 20.2824 16.462 20.2204C16.6975 20.1583 16.9479 20.1924 17.1583 20.315C17.3686 20.4376 17.5217 20.6388 17.5837 20.8743C17.6457 21.1097 17.6117 21.3602 17.4891 21.5705C16.8076 22.7393 16.2248 23.5592 15.6534 24.1543C14.8327 25.0094 14.0105 25.4255 13.1354 25.4255C11.9201 25.4255 10.9464 24.8755 10.32 23.8361C9.83198 23.0269 9.57422 21.9186 9.57422 20.6305C9.57422 17.2674 11.3778 12.5757 14.3164 12.5757C16.6363 12.5757 18.1958 15.486 19.8464 18.5669C21.0473 20.8049 22.5365 23.5898 23.7579 23.5898C24.3178 23.5898 24.7133 23.3672 25.0016 22.8884C25.3122 22.3729 25.4835 21.5713 25.4835 20.6305C25.468 19.1235 25.1198 17.6384 24.4639 16.2815C23.8903 15.1281 23.1675 14.4114 22.577 14.4114C22.1395 14.4114 21.6125 14.7938 21.0098 15.5457C20.8576 15.7357 20.6362 15.8576 20.3942 15.8844C20.1522 15.9112 19.9095 15.8408 19.7194 15.6887C19.5294 15.5366 19.4075 15.3151 19.3807 15.0732C19.3539 14.8312 19.4243 14.5884 19.5764 14.3984C20.5593 13.1723 21.5406 12.5757 22.577 12.5757C23.927 12.5757 25.1775 13.6014 26.1069 15.4638C26.8864 17.0758 27.3004 18.84 27.3192 20.6305Z" fill="white"/>
</svg>
