<svg width="31" height="30" viewBox="0 0 31 30" fill="none" xmlns="http://www.w3.org/2000/svg">
<g clip-path="url(#clip0_13_658)">
<path d="M23.0039 0H7.06641C3.18315 0 0.0351562 3.148 0.0351562 7.03125V22.9688C0.0351562 26.852 3.18315 30 7.06641 30H23.0039C26.8872 30 30.0352 26.852 30.0352 22.9688V7.03125C30.0352 3.148 26.8872 0 23.0039 0Z" fill="white"/>
<path d="M23.0039 0H7.06641C3.18315 0 0.0351562 3.148 0.0351562 7.03125V22.9688C0.0351562 26.852 3.18315 30 7.06641 30H23.0039C26.8872 30 30.0352 26.852 30.0352 22.9688V7.03125C30.0352 3.148 26.8872 0 23.0039 0Z" fill="#0A66C2"/>
<path d="M21.6814 25.51H25.1115C25.2358 25.51 25.355 25.4606 25.4429 25.3727C25.5308 25.2848 25.5802 25.1656 25.5803 25.0413L25.582 17.7942C25.582 14.0064 24.7658 11.0948 20.3393 11.0948C18.6566 11.0323 17.0698 11.8997 16.2135 13.3481C16.2093 13.3552 16.2029 13.3606 16.1953 13.3637C16.1877 13.3668 16.1794 13.3673 16.1715 13.3651C16.1636 13.363 16.1566 13.3583 16.1516 13.3519C16.1466 13.3454 16.1438 13.3374 16.1438 13.3293V11.9133C16.1438 11.789 16.0944 11.6697 16.0065 11.5818C15.9185 11.4939 15.7993 11.4445 15.675 11.4445H12.4199C12.2956 11.4445 12.1763 11.4939 12.0884 11.5818C12.0005 11.6697 11.9511 11.789 11.9511 11.9133V25.0406C11.9511 25.1649 12.0005 25.2842 12.0884 25.3721C12.1763 25.46 12.2956 25.5094 12.4199 25.5094H15.8497C15.974 25.5094 16.0933 25.46 16.1812 25.3721C16.2691 25.2842 16.3185 25.1649 16.3185 25.0406V18.5516C16.3185 16.7168 16.6665 14.9399 18.9412 14.9399C21.1836 14.9399 21.2127 17.0394 21.2127 18.6704V25.0412C21.2127 25.1655 21.2621 25.2848 21.35 25.3727C21.4379 25.4606 21.5571 25.51 21.6814 25.51ZM4.48828 6.98766C4.48828 8.37797 5.63285 9.52195 7.02328 9.52195C8.41336 9.52184 9.55723 8.37715 9.55723 6.98707C9.55699 5.59699 8.41301 4.45312 7.02281 4.45312C5.63227 4.45312 4.48828 5.59734 4.48828 6.98766ZM5.30379 25.51H8.7382C8.86252 25.51 8.98175 25.4606 9.06966 25.3727C9.15757 25.2848 9.20695 25.1655 9.20695 25.0412V11.9133C9.20695 11.789 9.15757 11.6697 9.06966 11.5818C8.98175 11.4939 8.86252 11.4445 8.7382 11.4445H5.30379C5.17947 11.4445 5.06024 11.4939 4.97233 11.5818C4.88443 11.6697 4.83504 11.789 4.83504 11.9133V25.0412C4.83504 25.1655 4.88443 25.2848 4.97233 25.3727C5.06024 25.4606 5.17947 25.51 5.30379 25.51Z" fill="white"/>
</g>
<defs>
<clipPath id="clip0_13_658">
<rect width="30" height="30" fill="white" transform="translate(0.0351562)"/>
</clipPath>
</defs>
</svg>
